<svg width="34" height="32" viewBox="0 0 34 32" fill="none" xmlns="http://www.w3.org/2000/svg">
<path d="M16.9996 8.5C16.9996 12.6421 13.5732 16 9.34654 16H1.69348V8.5C1.69348 4.35786 5.11987 1 9.34654 1C13.5732 1 16.9996 4.35786 16.9996 8.5Z" fill="#4D4C4A"/>
<path d="M17.0001 23.5C17.0001 19.3579 20.4265 16 24.6532 16H32.3062V23.5C32.3062 27.6421 28.8799 31 24.6532 31C20.4265 31 17.0001 27.6421 17.0001 23.5Z" fill="#4D4C4A"/>
<path d="M1.69348 23.5C1.69348 27.6421 5.11987 31 9.34654 31H16.9996V23.5C16.9996 19.3579 13.5732 16 9.34654 16C5.11987 16 1.69348 19.3579 1.69348 23.5Z" fill="#4D4C4A"/>
<path d="M32.3062 8.5C32.3062 4.35786 28.8799 1 24.6532 1H17.0001V8.5C17.0001 12.6421 20.4265 16 24.6532 16C28.8799 16 32.3062 12.6421 32.3062 8.5Z" fill="#4D4C4A"/>
</svg>
