<svg width="92" height="18" viewBox="0 0 92 18" fill="none" xmlns="http://www.w3.org/2000/svg">
<g clip-path="url(#clip0_1_247)">
<path d="M2.5577 18C5.31601 18 7.38892 15.6011 8.62594 13.7055C8.47551 14.1249 8.39194 14.5442 8.39194 14.9469C8.39194 16.0541 9.02716 16.8425 10.281 16.8425C12.0028 16.8425 13.8417 15.3327 14.7946 13.7055C14.7277 13.9404 14.6943 14.1584 14.6943 14.3597C14.6943 15.1314 15.1289 15.6179 16.0149 15.6179C18.8066 15.6179 21.6151 10.6692 21.6151 6.3411C21.6151 2.96924 19.9099 0 15.6304 0C8.10771 0 0 9.19294 0 15.1314C0 17.4632 1.25377 18 2.5577 18ZM13.0392 5.97204C13.0392 5.13327 13.5073 4.54613 14.1928 4.54613C14.8614 4.54613 15.3295 5.13327 15.3295 5.97204C15.3295 6.81081 14.8614 7.41472 14.1928 7.41472C13.5073 7.41472 13.0392 6.81081 13.0392 5.97204ZM16.6167 5.97204C16.6167 5.13327 17.0848 4.54613 17.7702 4.54613C18.4388 4.54613 18.9069 5.13327 18.9069 5.97204C18.9069 6.81081 18.4388 7.41472 17.7702 7.41472C17.0848 7.41472 16.6167 6.81081 16.6167 5.97204Z" fill="white"/>
<path d="M24.9579 16.1714H27.4654V13.7054C27.4654 12.548 27.3651 12.1118 26.7801 10.9375L27.0976 10.7697C27.9502 12.7661 29.1539 13.4873 30.3909 13.4873C32.3802 13.4873 33.9683 11.7427 33.9683 9.04191C33.9683 6.45849 32.5139 4.56287 30.4243 4.56287C29.1873 4.56287 27.9502 5.26744 27.0976 7.28049L26.7801 7.11273C27.1813 6.30751 27.4654 5.55262 27.4654 4.83128H24.9579V16.1714ZM27.4654 9.02511C27.4654 7.91795 28.3013 6.69334 29.5383 6.69334C30.5413 6.69334 31.3605 7.51534 31.3605 9.00832C31.3605 10.4846 30.5748 11.3569 29.5216 11.3569C28.3514 11.3569 27.4654 10.1659 27.4654 9.02511Z" fill="white"/>
<path d="M34.8837 13.219H37.3912V10.2665C37.3912 8.18641 38.1268 6.71018 39.4975 6.71018C40.3668 6.71018 40.6343 7.29732 40.6343 8.75678V13.219H43.1419V8.3542C43.1419 5.70366 42.189 4.56293 40.3668 4.56293C38.4945 4.56293 37.876 5.82109 37.1572 7.34765L36.8396 7.1799C37.2742 6.24047 37.3912 5.67011 37.3912 4.83134V1.9292H34.8837V13.219Z" fill="white"/>
<path d="M46.8066 13.4873C48.4281 13.4873 49.381 12.4138 50.0998 11.0381L50.4007 11.1891C50.0831 11.8434 49.7822 12.5983 49.7822 13.219H52.2396V8.65603C52.2396 5.93845 51.1028 4.56287 48.4448 4.56287C45.837 4.56287 44.5498 5.87135 44.299 7.24693L46.7063 7.66632C46.7899 6.94497 47.375 6.45849 48.3111 6.45849C49.2473 6.45849 49.7822 6.9282 49.7822 7.49856C49.7822 8.06895 49.2306 8.33734 47.7595 8.35413C45.5862 8.38764 43.9814 9.17611 43.9814 10.8536C43.9814 12.2292 45.068 13.4873 46.8066 13.4873ZM46.4722 10.6859C46.4722 9.36061 48.5785 10.2833 49.7321 9.26V9.5619C49.7321 10.753 48.6789 11.6253 47.6257 11.6253C47.074 11.6253 46.4722 11.3904 46.4722 10.6859Z" fill="white"/>
<path d="M53.2332 13.219H55.7408V10.2665C55.7408 8.18635 56.4763 6.71012 57.8471 6.71012C58.7164 6.71012 58.9838 7.29726 58.9838 8.75672V13.219H61.4914V8.35413C61.4914 5.7036 60.5386 4.56287 58.7164 4.56287C56.8441 4.56287 56.2256 5.82103 55.5067 7.34759L55.1891 7.17983C55.6238 6.24041 55.7408 5.67005 55.7408 4.83128H53.2332V13.219Z" fill="white"/>
<path d="M68.1702 13.2527V11.1725C67.6353 11.357 66.1475 11.6757 66.1475 10.4512V6.84445H68.1535V4.8314H66.1475V2.5835L63.6232 3.33839V4.8314H62.1187V6.84445H63.6232L63.64 10.6525C63.64 13.454 66.1308 13.8566 68.1702 13.2527Z" fill="white"/>
<path d="M73.2638 13.4873C75.8048 13.4873 77.744 11.5414 77.744 9.00832C77.744 6.49204 75.8048 4.56287 73.2638 4.56287C70.7229 4.56287 68.767 6.49204 68.767 9.00832C68.767 11.5414 70.7229 13.4873 73.2638 13.4873ZM71.3581 9.02511C71.3581 7.63277 72.1438 6.65979 73.2638 6.65979C74.3839 6.65979 75.1529 7.63277 75.1529 9.02511C75.1529 10.4175 74.3839 11.3904 73.2638 11.3904C72.1438 11.3904 71.3581 10.4175 71.3581 9.02511Z" fill="white"/>
<path d="M78.5209 13.219H81.0281V10.2665C81.0281 8.10245 81.7135 6.71012 82.8168 6.71012C83.536 6.71012 83.7699 7.28049 83.7699 8.75672V13.219H86.2778V10.2665C86.2778 8.23665 87.0131 6.71012 88.0666 6.71012C88.7681 6.71012 89.0188 7.36437 89.0188 8.75672V13.219H91.5267V8.35413C91.5267 5.68682 90.6573 4.56287 88.9521 4.56287C87.1802 4.56287 86.5454 5.82103 85.9267 7.36437L85.6253 7.21338C86.2111 5.45197 84.9399 4.56287 83.6863 4.56287C82.0317 4.56287 81.4299 5.82103 80.7613 7.34759L80.46 7.17983C80.8778 6.24041 81.0281 5.67005 81.0281 4.83128H78.5209V13.219Z" fill="white"/>
</g>
<defs>
<clipPath id="clip0_1_247">
<rect width="91.5268" height="18" fill="white"/>
</clipPath>
</defs>
</svg>
